<svg xmlns="http://www.w3.org/2000/svg" xmlns:xlink="http://www.w3.org/1999/xlink" width="350" zoomAndPan="magnify" viewBox="0 0 262.5 262.500001" height="350" preserveAspectRatio="xMidYMid meet" version="1.0"><defs><g/><clipPath id="id1"><path d="M 100 104 L 145 104 L 145 120 L 100 120 Z M 100 104 " clip-rule="nonzero"/></clipPath><clipPath id="id2"><path d="M 129.859375 12.007812 L 245.136719 98.300781 L 146.257812 230.390625 L 30.976562 144.09375 Z M 129.859375 12.007812 " clip-rule="nonzero"/></clipPath><clipPath id="id3"><path d="M 129.859375 12.007812 L 245.136719 98.300781 L 146.257812 230.390625 L 30.976562 144.09375 Z M 129.859375 12.007812 " clip-rule="nonzero"/></clipPath><clipPath id="id4"><path d="M 129.859375 12.007812 L 245.136719 98.300781 L 146.257812 230.390625 L 30.976562 144.09375 Z M 129.859375 12.007812 " clip-rule="nonzero"/></clipPath><clipPath id="id5"><path d="M 141 115 L 168 115 L 168 133 L 141 133 Z M 141 115 " clip-rule="nonzero"/></clipPath><clipPath id="id6"><path d="M 129.859375 12.007812 L 245.136719 98.300781 L 146.257812 230.390625 L 30.976562 144.09375 Z M 129.859375 12.007812 " clip-rule="nonzero"/></clipPath><clipPath id="id7"><path d="M 129.859375 12.007812 L 245.136719 98.300781 L 146.257812 230.390625 L 30.976562 144.09375 Z M 129.859375 12.007812 " clip-rule="nonzero"/></clipPath><clipPath id="id8"><path d="M 129.859375 12.007812 L 245.136719 98.300781 L 146.257812 230.390625 L 30.976562 144.09375 Z M 129.859375 12.007812 " clip-rule="nonzero"/></clipPath><clipPath id="id9"><path d="M 47 107 L 208 107 L 208 161 L 47 161 Z M 47 107 " clip-rule="nonzero"/></clipPath><clipPath id="id10"><path d="M 129.859375 12.007812 L 245.136719 98.300781 L 146.257812 230.390625 L 30.976562 144.09375 Z M 129.859375 12.007812 " clip-rule="nonzero"/></clipPath><clipPath id="id11"><path d="M 129.859375 12.007812 L 245.136719 98.300781 L 146.257812 230.390625 L 30.976562 144.09375 Z M 129.859375 12.007812 " clip-rule="nonzero"/></clipPath><clipPath id="id12"><path d="M 129.859375 12.007812 L 245.136719 98.300781 L 146.257812 230.390625 L 30.976562 144.09375 Z M 129.859375 12.007812 " clip-rule="nonzero"/></clipPath><clipPath id="id13"><path d="M 166 122 L 193 122 L 193 130 L 166 130 Z M 166 122 " clip-rule="nonzero"/></clipPath><clipPath id="id14"><path d="M 129.859375 12.007812 L 245.136719 98.300781 L 146.257812 230.390625 L 30.976562 144.09375 Z M 129.859375 12.007812 " clip-rule="nonzero"/></clipPath><clipPath id="id15"><path d="M 129.859375 12.007812 L 245.136719 98.300781 L 146.257812 230.390625 L 30.976562 144.09375 Z M 129.859375 12.007812 " clip-rule="nonzero"/></clipPath><clipPath id="id16"><path d="M 129.859375 12.007812 L 245.136719 98.300781 L 146.257812 230.390625 L 30.976562 144.09375 Z M 129.859375 12.007812 " clip-rule="nonzero"/></clipPath><clipPath id="id17"><path d="M 134 64 L 146 64 L 146 73 L 134 73 Z M 134 64 " clip-rule="nonzero"/></clipPath><clipPath id="id18"><path d="M 129.859375 12.007812 L 245.136719 98.300781 L 146.257812 230.390625 L 30.976562 144.09375 Z M 129.859375 12.007812 " clip-rule="nonzero"/></clipPath><clipPath id="id19"><path d="M 129.859375 12.007812 L 245.136719 98.300781 L 146.257812 230.390625 L 30.976562 144.09375 Z M 129.859375 12.007812 " clip-rule="nonzero"/></clipPath><clipPath id="id20"><path d="M 129.859375 12.007812 L 245.136719 98.300781 L 146.257812 230.390625 L 30.976562 144.09375 Z M 129.859375 12.007812 " clip-rule="nonzero"/></clipPath><clipPath id="id21"><path d="M 124 44 L 156 44 L 156 68 L 124 68 Z M 124 44 " clip-rule="nonzero"/></clipPath><clipPath id="id22"><path d="M 129.859375 12.007812 L 245.136719 98.300781 L 146.257812 230.390625 L 30.976562 144.09375 Z M 129.859375 12.007812 " clip-rule="nonzero"/></clipPath><clipPath id="id23"><path d="M 129.859375 12.007812 L 245.136719 98.300781 L 146.257812 230.390625 L 30.976562 144.09375 Z M 129.859375 12.007812 " clip-rule="nonzero"/></clipPath><clipPath id="id24"><path d="M 129.859375 12.007812 L 245.136719 98.300781 L 146.257812 230.390625 L 30.976562 144.09375 Z M 129.859375 12.007812 " clip-rule="nonzero"/></clipPath><clipPath id="id25"><path d="M 144 48 L 159 48 L 159 69 L 144 69 Z M 144 48 " clip-rule="nonzero"/></clipPath><clipPath id="id26"><path d="M 129.859375 12.007812 L 245.136719 98.300781 L 146.257812 230.390625 L 30.976562 144.09375 Z M 129.859375 12.007812 " clip-rule="nonzero"/></clipPath><clipPath id="id27"><path d="M 129.859375 12.007812 L 245.136719 98.300781 L 146.257812 230.390625 L 30.976562 144.09375 Z M 129.859375 12.007812 " clip-rule="nonzero"/></clipPath><clipPath id="id28"><path d="M 129.859375 12.007812 L 245.136719 98.300781 L 146.257812 230.390625 L 30.976562 144.09375 Z M 129.859375 12.007812 " clip-rule="nonzero"/></clipPath><clipPath id="id29"><path d="M 136 51 L 156 51 L 156 68 L 136 68 Z M 136 51 " clip-rule="nonzero"/></clipPath><clipPath id="id30"><path d="M 129.859375 12.007812 L 245.136719 98.300781 L 146.257812 230.390625 L 30.976562 144.09375 Z M 129.859375 12.007812 " clip-rule="nonzero"/></clipPath><clipPath id="id31"><path d="M 129.859375 12.007812 L 245.136719 98.300781 L 146.257812 230.390625 L 30.976562 144.09375 Z M 129.859375 12.007812 " clip-rule="nonzero"/></clipPath><clipPath id="id32"><path d="M 129.859375 12.007812 L 245.136719 98.300781 L 146.257812 230.390625 L 30.976562 144.09375 Z M 129.859375 12.007812 " clip-rule="nonzero"/></clipPath><clipPath id="id33"><path d="M 141 41 L 165 41 L 165 66 L 141 66 Z M 141 41 " clip-rule="nonzero"/></clipPath><clipPath id="id34"><path d="M 129.859375 12.007812 L 245.136719 98.300781 L 146.257812 230.390625 L 30.976562 144.09375 Z M 129.859375 12.007812 " clip-rule="nonzero"/></clipPath><clipPath id="id35"><path d="M 129.859375 12.007812 L 245.136719 98.300781 L 146.257812 230.390625 L 30.976562 144.09375 Z M 129.859375 12.007812 " clip-rule="nonzero"/></clipPath><clipPath id="id36"><path d="M 129.859375 12.007812 L 245.136719 98.300781 L 146.257812 230.390625 L 30.976562 144.09375 Z M 129.859375 12.007812 " clip-rule="nonzero"/></clipPath><clipPath id="id37"><path d="M 83 83 L 129 83 L 129 104 L 83 104 Z M 83 83 " clip-rule="nonzero"/></clipPath><clipPath id="id38"><path d="M 129.859375 12.007812 L 245.136719 98.300781 L 146.257812 230.390625 L 30.976562 144.09375 Z M 129.859375 12.007812 " clip-rule="nonzero"/></clipPath><clipPath id="id39"><path d="M 129.859375 12.007812 L 245.136719 98.300781 L 146.257812 230.390625 L 30.976562 144.09375 Z M 129.859375 12.007812 " clip-rule="nonzero"/></clipPath><clipPath id="id40"><path d="M 129.859375 12.007812 L 245.136719 98.300781 L 146.257812 230.390625 L 30.976562 144.09375 Z M 129.859375 12.007812 " clip-rule="nonzero"/></clipPath><clipPath id="id41"><path d="M 118 75 L 135 75 L 135 94 L 118 94 Z M 118 75 " clip-rule="nonzero"/></clipPath><clipPath id="id42"><path d="M 129.859375 12.007812 L 245.136719 98.300781 L 146.257812 230.390625 L 30.976562 144.09375 Z M 129.859375 12.007812 " clip-rule="nonzero"/></clipPath><clipPath id="id43"><path d="M 129.859375 12.007812 L 245.136719 98.300781 L 146.257812 230.390625 L 30.976562 144.09375 Z M 129.859375 12.007812 " clip-rule="nonzero"/></clipPath><clipPath id="id44"><path d="M 129.859375 12.007812 L 245.136719 98.300781 L 146.257812 230.390625 L 30.976562 144.09375 Z M 129.859375 12.007812 " clip-rule="nonzero"/></clipPath><clipPath id="id45"><path d="M 125 70 L 169 70 L 169 124 L 125 124 Z M 125 70 " clip-rule="nonzero"/></clipPath><clipPath id="id46"><path d="M 129.859375 12.007812 L 245.136719 98.300781 L 146.257812 230.390625 L 30.976562 144.09375 Z M 129.859375 12.007812 " clip-rule="nonzero"/></clipPath><clipPath id="id47"><path d="M 129.859375 12.007812 L 245.136719 98.300781 L 146.257812 230.390625 L 30.976562 144.09375 Z M 129.859375 12.007812 " clip-rule="nonzero"/></clipPath><clipPath id="id48"><path d="M 129.859375 12.007812 L 245.136719 98.300781 L 146.257812 230.390625 L 30.976562 144.09375 Z M 129.859375 12.007812 " clip-rule="nonzero"/></clipPath><clipPath id="id49"><path d="M 155 87 L 160 87 L 160 122 L 155 122 Z M 155 87 " clip-rule="nonzero"/></clipPath><clipPath id="id50"><path d="M 129.859375 12.007812 L 245.136719 98.300781 L 146.257812 230.390625 L 30.976562 144.09375 Z M 129.859375 12.007812 " clip-rule="nonzero"/></clipPath><clipPath id="id51"><path d="M 129.859375 12.007812 L 245.136719 98.300781 L 146.257812 230.390625 L 30.976562 144.09375 Z M 129.859375 12.007812 " clip-rule="nonzero"/></clipPath><clipPath id="id52"><path d="M 129.859375 12.007812 L 245.136719 98.300781 L 146.257812 230.390625 L 30.976562 144.09375 Z M 129.859375 12.007812 " clip-rule="nonzero"/></clipPath><clipPath id="id53"><path d="M 152 93 L 165 93 L 165 100 L 152 100 Z M 152 93 " clip-rule="nonzero"/></clipPath><clipPath id="id54"><path d="M 129.859375 12.007812 L 245.136719 98.300781 L 146.257812 230.390625 L 30.976562 144.09375 Z M 129.859375 12.007812 " clip-rule="nonzero"/></clipPath><clipPath id="id55"><path d="M 129.859375 12.007812 L 245.136719 98.300781 L 146.257812 230.390625 L 30.976562 144.09375 Z M 129.859375 12.007812 " clip-rule="nonzero"/></clipPath><clipPath id="id56"><path d="M 129.859375 12.007812 L 245.136719 98.300781 L 146.257812 230.390625 L 30.976562 144.09375 Z M 129.859375 12.007812 " clip-rule="nonzero"/></clipPath><clipPath id="id57"><path d="M 79 80 L 185 80 L 185 112 L 79 112 Z M 79 80 " clip-rule="nonzero"/></clipPath><clipPath id="id58"><path d="M 129.859375 12.007812 L 245.136719 98.300781 L 146.257812 230.390625 L 30.976562 144.09375 Z M 129.859375 12.007812 " clip-rule="nonzero"/></clipPath><clipPath id="id59"><path d="M 129.859375 12.007812 L 245.136719 98.300781 L 146.257812 230.390625 L 30.976562 144.09375 Z M 129.859375 12.007812 " clip-rule="nonzero"/></clipPath><clipPath id="id60"><path d="M 129.859375 12.007812 L 245.136719 98.300781 L 146.257812 230.390625 L 30.976562 144.09375 Z M 129.859375 12.007812 " clip-rule="nonzero"/></clipPath><clipPath id="id61"><path d="M 147 52 L 186 52 L 186 114 L 147 114 Z M 147 52 " clip-rule="nonzero"/></clipPath><clipPath id="id62"><path d="M 129.859375 12.007812 L 245.136719 98.300781 L 146.257812 230.390625 L 30.976562 144.09375 Z M 129.859375 12.007812 " clip-rule="nonzero"/></clipPath><clipPath id="id63"><path d="M 129.859375 12.007812 L 245.136719 98.300781 L 146.257812 230.390625 L 30.976562 144.09375 Z M 129.859375 12.007812 " clip-rule="nonzero"/></clipPath><clipPath id="id64"><path d="M 129.859375 12.007812 L 245.136719 98.300781 L 146.257812 230.390625 L 30.976562 144.09375 Z M 129.859375 12.007812 " clip-rule="nonzero"/></clipPath><clipPath id="id65"><path d="M 142 62 L 163 62 L 163 91 L 142 91 Z M 142 62 " clip-rule="nonzero"/></clipPath><clipPath id="id66"><path d="M 129.859375 12.007812 L 245.136719 98.300781 L 146.257812 230.390625 L 30.976562 144.09375 Z M 129.859375 12.007812 " clip-rule="nonzero"/></clipPath><clipPath id="id67"><path d="M 129.859375 12.007812 L 245.136719 98.300781 L 146.257812 230.390625 L 30.976562 144.09375 Z M 129.859375 12.007812 " clip-rule="nonzero"/></clipPath><clipPath id="id68"><path d="M 129.859375 12.007812 L 245.136719 98.300781 L 146.257812 230.390625 L 30.976562 144.09375 Z M 129.859375 12.007812 " clip-rule="nonzero"/></clipPath><clipPath id="id69"><path d="M 75 82 L 94 82 L 94 103 L 75 103 Z M 75 82 " clip-rule="nonzero"/></clipPath><clipPath id="id70"><path d="M 129.859375 12.007812 L 245.136719 98.300781 L 146.257812 230.390625 L 30.976562 144.09375 Z M 129.859375 12.007812 " clip-rule="nonzero"/></clipPath><clipPath id="id71"><path d="M 129.859375 12.007812 L 245.136719 98.300781 L 146.257812 230.390625 L 30.976562 144.09375 Z M 129.859375 12.007812 " clip-rule="nonzero"/></clipPath><clipPath id="id72"><path d="M 129.859375 12.007812 L 245.136719 98.300781 L 146.257812 230.390625 L 30.976562 144.09375 Z M 129.859375 12.007812 " clip-rule="nonzero"/></clipPath><clipPath id="id73"><path d="M 175 94 L 228 94 L 228 126 L 175 126 Z M 175 94 " clip-rule="nonzero"/></clipPath><clipPath id="id74"><path d="M 129.859375 12.007812 L 245.136719 98.300781 L 146.257812 230.390625 L 30.976562 144.09375 Z M 129.859375 12.007812 " clip-rule="nonzero"/></clipPath><clipPath id="id75"><path d="M 129.859375 12.007812 L 245.136719 98.300781 L 146.257812 230.390625 L 30.976562 144.09375 Z M 129.859375 12.007812 " clip-rule="nonzero"/></clipPath><clipPath id="id76"><path d="M 129.859375 12.007812 L 245.136719 98.300781 L 146.257812 230.390625 L 30.976562 144.09375 Z M 129.859375 12.007812 " clip-rule="nonzero"/></clipPath><clipPath id="id77"><path d="M 186 95 L 220 95 L 220 119 L 186 119 Z M 186 95 " clip-rule="nonzero"/></clipPath><clipPath id="id78"><path d="M 129.859375 12.007812 L 245.136719 98.300781 L 146.257812 230.390625 L 30.976562 144.09375 Z M 129.859375 12.007812 " clip-rule="nonzero"/></clipPath><clipPath id="id79"><path d="M 129.859375 12.007812 L 245.136719 98.300781 L 146.257812 230.390625 L 30.976562 144.09375 Z M 129.859375 12.007812 " clip-rule="nonzero"/></clipPath><clipPath id="id80"><path d="M 129.859375 12.007812 L 245.136719 98.300781 L 146.257812 230.390625 L 30.976562 144.09375 Z M 129.859375 12.007812 " clip-rule="nonzero"/></clipPath><clipPath id="id81"><path d="M 172 63 L 176 63 L 176 71 L 172 71 Z M 172 63 " clip-rule="nonzero"/></clipPath><clipPath id="id82"><path d="M 129.859375 12.007812 L 245.136719 98.300781 L 146.257812 230.390625 L 30.976562 144.09375 Z M 129.859375 12.007812 " clip-rule="nonzero"/></clipPath><clipPath id="id83"><path d="M 129.859375 12.007812 L 245.136719 98.300781 L 146.257812 230.390625 L 30.976562 144.09375 Z M 129.859375 12.007812 " clip-rule="nonzero"/></clipPath><clipPath id="id84"><path d="M 129.859375 12.007812 L 245.136719 98.300781 L 146.257812 230.390625 L 30.976562 144.09375 Z M 129.859375 12.007812 " clip-rule="nonzero"/></clipPath><clipPath id="id85"><path d="M 150 106 L 165 106 L 165 112 L 150 112 Z M 150 106 " clip-rule="nonzero"/></clipPath><clipPath id="id86"><path d="M 129.859375 12.007812 L 245.136719 98.300781 L 146.257812 230.390625 L 30.976562 144.09375 Z M 129.859375 12.007812 " clip-rule="nonzero"/></clipPath><clipPath id="id87"><path d="M 129.859375 12.007812 L 245.136719 98.300781 L 146.257812 230.390625 L 30.976562 144.09375 Z M 129.859375 12.007812 " clip-rule="nonzero"/></clipPath><clipPath id="id88"><path d="M 129.859375 12.007812 L 245.136719 98.300781 L 146.257812 230.390625 L 30.976562 144.09375 Z M 129.859375 12.007812 " clip-rule="nonzero"/></clipPath><clipPath id="id89"><path d="M 149 81 L 157 81 L 157 87 L 149 87 Z M 149 81 " clip-rule="nonzero"/></clipPath><clipPath id="id90"><path d="M 129.859375 12.007812 L 245.136719 98.300781 L 146.257812 230.390625 L 30.976562 144.09375 Z M 129.859375 12.007812 " clip-rule="nonzero"/></clipPath><clipPath id="id91"><path d="M 129.859375 12.007812 L 245.136719 98.300781 L 146.257812 230.390625 L 30.976562 144.09375 Z M 129.859375 12.007812 " clip-rule="nonzero"/></clipPath><clipPath id="id92"><path d="M 129.859375 12.007812 L 245.136719 98.300781 L 146.257812 230.390625 L 30.976562 144.09375 Z M 129.859375 12.007812 " clip-rule="nonzero"/></clipPath><clipPath id="id93"><path d="M 154 113 L 165 113 L 165 120 L 154 120 Z M 154 113 " clip-rule="nonzero"/></clipPath><clipPath id="id94"><path d="M 129.859375 12.007812 L 245.136719 98.300781 L 146.257812 230.390625 L 30.976562 144.09375 Z M 129.859375 12.007812 " clip-rule="nonzero"/></clipPath><clipPath id="id95"><path d="M 129.859375 12.007812 L 245.136719 98.300781 L 146.257812 230.390625 L 30.976562 144.09375 Z M 129.859375 12.007812 " clip-rule="nonzero"/></clipPath><clipPath id="id96"><path d="M 129.859375 12.007812 L 245.136719 98.300781 L 146.257812 230.390625 L 30.976562 144.09375 Z M 129.859375 12.007812 " clip-rule="nonzero"/></clipPath><clipPath id="id97"><path d="M 136 46 L 146 46 L 146 50 L 136 50 Z M 136 46 " clip-rule="nonzero"/></clipPath><clipPath id="id98"><path d="M 129.859375 12.007812 L 245.136719 98.300781 L 146.257812 230.390625 L 30.976562 144.09375 Z M 129.859375 12.007812 " clip-rule="nonzero"/></clipPath><clipPath id="id99"><path d="M 129.859375 12.007812 L 245.136719 98.300781 L 146.257812 230.390625 L 30.976562 144.09375 Z M 129.859375 12.007812 " clip-rule="nonzero"/></clipPath><clipPath id="id100"><path d="M 129.859375 12.007812 L 245.136719 98.300781 L 146.257812 230.390625 L 30.976562 144.09375 Z M 129.859375 12.007812 " clip-rule="nonzero"/></clipPath><clipPath id="id101"><path d="M 134 50 L 142 50 L 142 54 L 134 54 Z M 134 50 " clip-rule="nonzero"/></clipPath><clipPath id="id102"><path d="M 129.859375 12.007812 L 245.136719 98.300781 L 146.257812 230.390625 L 30.976562 144.09375 Z M 129.859375 12.007812 " clip-rule="nonzero"/></clipPath><clipPath id="id103"><path d="M 129.859375 12.007812 L 245.136719 98.300781 L 146.257812 230.390625 L 30.976562 144.09375 Z M 129.859375 12.007812 " clip-rule="nonzero"/></clipPath><clipPath id="id104"><path d="M 129.859375 12.007812 L 245.136719 98.300781 L 146.257812 230.390625 L 30.976562 144.09375 Z M 129.859375 12.007812 " clip-rule="nonzero"/></clipPath><clipPath id="id105"><path d="M 128 56 L 142 56 L 142 65 L 128 65 Z M 128 56 " clip-rule="nonzero"/></clipPath><clipPath id="id106"><path d="M 129.859375 12.007812 L 245.136719 98.300781 L 146.257812 230.390625 L 30.976562 144.09375 Z M 129.859375 12.007812 " clip-rule="nonzero"/></clipPath><clipPath id="id107"><path d="M 129.859375 12.007812 L 245.136719 98.300781 L 146.257812 230.390625 L 30.976562 144.09375 Z M 129.859375 12.007812 " clip-rule="nonzero"/></clipPath><clipPath id="id108"><path d="M 129.859375 12.007812 L 245.136719 98.300781 L 146.257812 230.390625 L 30.976562 144.09375 Z M 129.859375 12.007812 " clip-rule="nonzero"/></clipPath><clipPath id="id109"><path d="M 146 43 L 162 43 L 162 54 L 146 54 Z M 146 43 " clip-rule="nonzero"/></clipPath><clipPath id="id110"><path d="M 129.859375 12.007812 L 245.136719 98.300781 L 146.257812 230.390625 L 30.976562 144.09375 Z M 129.859375 12.007812 " clip-rule="nonzero"/></clipPath><clipPath id="id111"><path d="M 129.859375 12.007812 L 245.136719 98.300781 L 146.257812 230.390625 L 30.976562 144.09375 Z M 129.859375 12.007812 " clip-rule="nonzero"/></clipPath><clipPath id="id112"><path d="M 129.859375 12.007812 L 245.136719 98.300781 L 146.257812 230.390625 L 30.976562 144.09375 Z M 129.859375 12.007812 " clip-rule="nonzero"/></clipPath><clipPath id="id113"><path d="M 161 54 L 163 54 L 163 59 L 161 59 Z M 161 54 " clip-rule="nonzero"/></clipPath><clipPath id="id114"><path d="M 129.859375 12.007812 L 245.136719 98.300781 L 146.257812 230.390625 L 30.976562 144.09375 Z M 129.859375 12.007812 " clip-rule="nonzero"/></clipPath><clipPath id="id115"><path d="M 129.859375 12.007812 L 245.136719 98.300781 L 146.257812 230.390625 L 30.976562 144.09375 Z M 129.859375 12.007812 " clip-rule="nonzero"/></clipPath><clipPath id="id116"><path d="M 129.859375 12.007812 L 245.136719 98.300781 L 146.257812 230.390625 L 30.976562 144.09375 Z M 129.859375 12.007812 " clip-rule="nonzero"/></clipPath><clipPath id="id117"><path d="M 191 124 L 204 124 L 204 145 L 191 145 Z M 191 124 " clip-rule="nonzero"/></clipPath><clipPath id="id118"><path d="M 129.859375 12.007812 L 245.136719 98.300781 L 146.257812 230.390625 L 30.976562 144.09375 Z M 129.859375 12.007812 " clip-rule="nonzero"/></clipPath><clipPath id="id119"><path d="M 129.859375 12.007812 L 245.136719 98.300781 L 146.257812 230.390625 L 30.976562 144.09375 Z M 129.859375 12.007812 " clip-rule="nonzero"/></clipPath><clipPath id="id120"><path d="M 129.859375 12.007812 L 245.136719 98.300781 L 146.257812 230.390625 L 30.976562 144.09375 Z M 129.859375 12.007812 " clip-rule="nonzero"/></clipPath><clipPath id="id121"><path d="M 164 126 L 172 126 L 172 159 L 164 159 Z M 164 126 " clip-rule="nonzero"/></clipPath><clipPath id="id122"><path d="M 129.859375 12.007812 L 245.136719 98.300781 L 146.257812 230.390625 L 30.976562 144.09375 Z M 129.859375 12.007812 " clip-rule="nonzero"/></clipPath><clipPath id="id123"><path d="M 129.859375 12.007812 L 245.136719 98.300781 L 146.257812 230.390625 L 30.976562 144.09375 Z M 129.859375 12.007812 " clip-rule="nonzero"/></clipPath><clipPath id="id124"><path d="M 129.859375 12.007812 L 245.136719 98.300781 L 146.257812 230.390625 L 30.976562 144.09375 Z M 129.859375 12.007812 " clip-rule="nonzero"/></clipPath><clipPath id="id125"><path d="M 109 111 L 124 111 L 124 161 L 109 161 Z M 109 111 " clip-rule="nonzero"/></clipPath><clipPath id="id126"><path d="M 129.859375 12.007812 L 245.136719 98.300781 L 146.257812 230.390625 L 30.976562 144.09375 Z M 129.859375 12.007812 " clip-rule="nonzero"/></clipPath><clipPath id="id127"><path d="M 129.859375 12.007812 L 245.136719 98.300781 L 146.257812 230.390625 L 30.976562 144.09375 Z M 129.859375 12.007812 " clip-rule="nonzero"/></clipPath><clipPath id="id128"><path d="M 129.859375 12.007812 L 245.136719 98.300781 L 146.257812 230.390625 L 30.976562 144.09375 Z M 129.859375 12.007812 " clip-rule="nonzero"/></clipPath><clipPath id="id129"><path d="M 57 114 L 101 114 L 101 126 L 57 126 Z M 57 114 " clip-rule="nonzero"/></clipPath><clipPath id="id130"><path d="M 129.859375 12.007812 L 245.136719 98.300781 L 146.257812 230.390625 L 30.976562 144.09375 Z M 129.859375 12.007812 " clip-rule="nonzero"/></clipPath><clipPath id="id131"><path d="M 129.859375 12.007812 L 245.136719 98.300781 L 146.257812 230.390625 L 30.976562 144.09375 Z M 129.859375 12.007812 " clip-rule="nonzero"/></clipPath><clipPath id="id132"><path d="M 129.859375 12.007812 L 245.136719 98.300781 L 146.257812 230.390625 L 30.976562 144.09375 Z M 129.859375 12.007812 " clip-rule="nonzero"/></clipPath><clipPath id="id133"><path d="M 122 120 L 161 120 L 161 135 L 122 135 Z M 122 120 " clip-rule="nonzero"/></clipPath><clipPath id="id134"><path d="M 129.859375 12.007812 L 245.136719 98.300781 L 146.257812 230.390625 L 30.976562 144.09375 Z M 129.859375 12.007812 " clip-rule="nonzero"/></clipPath><clipPath id="id135"><path d="M 129.859375 12.007812 L 245.136719 98.300781 L 146.257812 230.390625 L 30.976562 144.09375 Z M 129.859375 12.007812 " clip-rule="nonzero"/></clipPath><clipPath id="id136"><path d="M 129.859375 12.007812 L 245.136719 98.300781 L 146.257812 230.390625 L 30.976562 144.09375 Z M 129.859375 12.007812 " clip-rule="nonzero"/></clipPath><clipPath id="id137"><path d="M 176 132 L 198 132 L 198 139 L 176 139 Z M 176 132 " clip-rule="nonzero"/></clipPath><clipPath id="id138"><path d="M 129.859375 12.007812 L 245.136719 98.300781 L 146.257812 230.390625 L 30.976562 144.09375 Z M 129.859375 12.007812 " clip-rule="nonzero"/></clipPath><clipPath id="id139"><path d="M 129.859375 12.007812 L 245.136719 98.300781 L 146.257812 230.390625 L 30.976562 144.09375 Z M 129.859375 12.007812 " clip-rule="nonzero"/></clipPath><clipPath id="id140"><path d="M 129.859375 12.007812 L 245.136719 98.300781 L 146.257812 230.390625 L 30.976562 144.09375 Z M 129.859375 12.007812 " clip-rule="nonzero"/></clipPath><clipPath id="id141"><path d="M 59 131 L 206 131 L 206 171 L 59 171 Z M 59 131 " clip-rule="nonzero"/></clipPath><clipPath id="id142"><path d="M 129.859375 12.007812 L 245.136719 98.300781 L 146.257812 230.390625 L 30.976562 144.09375 Z M 129.859375 12.007812 " clip-rule="nonzero"/></clipPath><clipPath id="id143"><path d="M 129.859375 12.007812 L 245.136719 98.300781 L 146.257812 230.390625 L 30.976562 144.09375 Z M 129.859375 12.007812 " clip-rule="nonzero"/></clipPath><clipPath id="id144"><path d="M 129.859375 12.007812 L 245.136719 98.300781 L 146.257812 230.390625 L 30.976562 144.09375 Z M 129.859375 12.007812 " clip-rule="nonzero"/></clipPath><clipPath id="id145"><path d="M 54 123 L 186 123 L 186 160 L 54 160 Z M 54 123 " clip-rule="nonzero"/></clipPath><clipPath id="id146"><path d="M 129.859375 12.007812 L 245.136719 98.300781 L 146.257812 230.390625 L 30.976562 144.09375 Z M 129.859375 12.007812 " clip-rule="nonzero"/></clipPath><clipPath id="id147"><path d="M 129.859375 12.007812 L 245.136719 98.300781 L 146.257812 230.390625 L 30.976562 144.09375 Z M 129.859375 12.007812 " clip-rule="nonzero"/></clipPath><clipPath id="id148"><path d="M 129.859375 12.007812 L 245.136719 98.300781 L 146.257812 230.390625 L 30.976562 144.09375 Z M 129.859375 12.007812 " clip-rule="nonzero"/></clipPath><clipPath id="id149"><path d="M 70 151 L 98 151 L 98 169 L 70 169 Z M 70 151 " clip-rule="nonzero"/></clipPath><clipPath id="id150"><path d="M 129.859375 12.007812 L 245.136719 98.300781 L 146.257812 230.390625 L 30.976562 144.09375 Z M 129.859375 12.007812 " clip-rule="nonzero"/></clipPath><clipPath id="id151"><path d="M 129.859375 12.007812 L 245.136719 98.300781 L 146.257812 230.390625 L 30.976562 144.09375 Z M 129.859375 12.007812 " clip-rule="nonzero"/></clipPath><clipPath id="id152"><path d="M 129.859375 12.007812 L 245.136719 98.300781 L 146.257812 230.390625 L 30.976562 144.09375 Z M 129.859375 12.007812 " clip-rule="nonzero"/></clipPath></defs><g clip-path="url(#id1)"><g clip-path="url(#id2)"><g clip-path="url(#id3)"><g clip-path="url(#id4)"><path fill="rgb(87.449646%, 56.858826%, 51.368713%)" d="M 144.378906 118.878906 C 144.378906 118.878906 116.265625 104.59375 101.777344 104.332031 C 99.304688 104.832031 100.414062 110.890625 100.414062 110.890625 C 100.414062 110.890625 136.78125 122.898438 144.378906 118.878906 " fill-opacity="1" fill-rule="nonzero"/></g></g></g></g><g clip-path="url(#id5)"><g clip-path="url(#id6)"><g clip-path="url(#id7)"><g clip-path="url(#id8)"><path fill="rgb(18.818665%, 18.818665%, 19.60907%)" d="M 167.472656 123.058594 C 167.472656 123.058594 167.148438 131.195312 165.15625 132.015625 C 163.164062 132.839844 141.964844 120.964844 141.964844 120.964844 L 143.304688 115.660156 C 143.304688 115.660156 164.464844 119.367188 167.472656 123.058594 " fill-opacity="1" fill-rule="nonzero"/></g></g></g></g><g clip-path="url(#id9)"><g clip-path="url(#id10)"><g clip-path="url(#id11)"><g clip-path="url(#id12)"><path fill="rgb(96.859741%, 58.428955%, 17.248535%)" d="M 166.578125 127.226562 C 166.578125 127.226562 195.101562 112.992188 205.15625 125.632812 C 215.207031 138.273438 191.390625 156.433594 151.097656 159.117188 C 110.804688 161.800781 61.71875 161.914062 51.480469 146.144531 C 41.242188 130.378906 52.292969 120.144531 69.925781 110.976562 C 87.558594 101.804688 143.78125 115.648438 166.578125 127.226562 " fill-opacity="1" fill-rule="nonzero"/></g></g></g></g><g clip-path="url(#id13)"><g clip-path="url(#id14)"><g clip-path="url(#id15)"><g clip-path="url(#id16)"><path fill="rgb(21.179199%, 27.059937%, 29.798889%)" d="M 166.578125 127.226562 C 166.578125 127.226562 184.503906 132.835938 191.234375 126.210938 C 197.964844 119.582031 175.796875 122.53125 166.578125 127.226562 " fill-opacity="1" fill-rule="nonzero"/></g></g></g></g><g clip-path="url(#id17)"><g clip-path="url(#id18)"><g clip-path="url(#id19)"><g clip-path="url(#id20)"><path fill="rgb(87.449646%, 56.858826%, 51.368713%)" d="M 138.054688 65.960938 C 138.054688 65.960938 136.515625 70.253906 134.769531 72.058594 C 133.027344 73.863281 141.21875 72.214844 141.21875 72.214844 C 141.21875 72.214844 145.054688 65.613281 145.742188 64.757812 C 146.433594 63.902344 138.054688 65.960938 138.054688 65.960938 " fill-opacity="1" fill-rule="nonzero"/></g></g></g></g><g clip-path="url(#id21)"><g clip-path="url(#id22)"><g clip-path="url(#id23)"><g clip-path="url(#id24)"><path fill="rgb(97.648621%, 69.018555%, 56.469727%)" d="M 142.160156 44.941406 C 142.160156 44.941406 138.3125 46.109375 133.363281 50.097656 C 132.324219 50.300781 129.09375 50.480469 128.476562 51.4375 C 127.855469 52.394531 128.8125 54.140625 128.8125 54.140625 C 128.8125 54.140625 121.539062 61.597656 126.09375 65.542969 C 129.65625 68.644531 136.148438 67 136.148438 67 L 142.070312 66.144531 C 142.070312 66.144531 150.65625 65.546875 154.609375 60.464844 C 158.558594 55.382812 148.675781 44.546875 142.160156 44.941406 " fill-opacity="1" fill-rule="nonzero"/></g></g></g></g><g clip-path="url(#id25)"><g clip-path="url(#id26)"><g clip-path="url(#id27)"><g clip-path="url(#id28)"><path fill="rgb(39.608765%, 29.019165%, 30.589294%)" d="M 149.203125 48.816406 C 149.035156 48.714844 146.21875 51.3125 145.742188 52.519531 C 145.261719 53.730469 147.035156 52.804688 147.035156 52.804688 C 147.035156 52.804688 145.738281 53.921875 145.445312 55.628906 C 145.148438 57.335938 148.191406 55.070312 148.191406 55.070312 C 148.191406 55.070312 147.097656 56.574219 147.554688 56.882812 C 148.011719 57.191406 150.253906 55.210938 150.253906 55.210938 L 151.96875 57.25 C 151.96875 57.25 154.910156 57.261719 153.574219 59.789062 C 152.238281 62.316406 149.007812 63.394531 148.011719 61.308594 C 145.320312 62.496094 144.425781 63.953125 144.425781 63.953125 C 144.425781 63.953125 144.195312 66.097656 144.589844 66.886719 C 144.984375 67.671875 145.890625 66.027344 145.890625 66.027344 C 145.890625 66.027344 146.96875 68.699219 147.457031 68.574219 C 147.945312 68.449219 151.222656 64.464844 151.238281 64.574219 C 151.253906 64.683594 151.191406 68.136719 152.234375 67.574219 C 153.277344 67.015625 155.402344 64.132812 155.402344 64.132812 C 155.402344 64.132812 155.421875 65.550781 155.90625 65.390625 C 156.386719 65.226562 158.300781 63.589844 158.625 62.589844 C 158.945312 61.589844 155.707031 52.78125 149.203125 48.816406 " fill-opacity="1" fill-rule="nonzero"/></g></g></g></g><g clip-path="url(#id29)"><g clip-path="url(#id30)"><g clip-path="url(#id31)"><g clip-path="url(#id32)"><path fill="rgb(18.818665%, 18.818665%, 19.60907%)" d="M 152.582031 51.527344 C 152.582031 51.527344 139.96875 64.960938 136.148438 67 C 137.15625 67.492188 142.070312 66.144531 142.070312 66.144531 C 142.070312 66.144531 154.257812 57.492188 155.246094 55.355469 C 156.230469 53.21875 152.582031 51.527344 152.582031 51.527344 " fill-opacity="1" fill-rule="nonzero"/></g></g></g></g><g clip-path="url(#id33)"><g clip-path="url(#id34)"><g clip-path="url(#id35)"><g clip-path="url(#id36)"><path fill="rgb(22.349548%, 50.588989%, 59.609985%)" d="M 157.863281 65.222656 C 157.863281 65.222656 154.6875 51.601562 141.703125 44.691406 C 143.449219 43.058594 150.066406 38.25 159.675781 46.253906 C 171.800781 56.359375 157.863281 65.222656 157.863281 65.222656 " fill-opacity="1" fill-rule="nonzero"/></g></g></g></g><g clip-path="url(#id37)"><g clip-path="url(#id38)"><g clip-path="url(#id39)"><g clip-path="url(#id40)"><path fill="rgb(87.449646%, 56.858826%, 51.368713%)" d="M 91.101562 85.492188 C 91.238281 85.398438 97.121094 82.09375 97.734375 83.988281 C 98.347656 85.886719 92.890625 89.316406 92.890625 89.316406 C 92.890625 89.316406 112.121094 95.152344 114.261719 94.921875 C 116.398438 94.695312 120.386719 87.355469 120.386719 87.355469 L 128.972656 92.34375 C 128.972656 92.34375 121.144531 100.964844 120.484375 101.757812 C 119.824219 102.550781 94.808594 106.371094 83.964844 100.277344 C 81.871094 97.734375 91.101562 85.492188 91.101562 85.492188 " fill-opacity="1" fill-rule="nonzero"/></g></g></g></g><g clip-path="url(#id41)"><g clip-path="url(#id42)"><g clip-path="url(#id43)"><g clip-path="url(#id44)"><path fill="rgb(18.818665%, 18.818665%, 19.60907%)" d="M 126.964844 75.941406 C 126.964844 75.941406 123.339844 76.753906 122.632812 80.410156 C 121.929688 84.066406 118.992188 87.550781 118.992188 87.550781 C 118.992188 87.550781 128.148438 93.359375 128.640625 93.664062 C 129.136719 93.96875 133.125 87.9375 134.347656 86.828125 C 135.574219 85.71875 126.964844 75.941406 126.964844 75.941406 " fill-opacity="1" fill-rule="nonzero"/></g></g></g></g><g clip-path="url(#id45)"><g clip-path="url(#id46)"><g clip-path="url(#id47)"><g clip-path="url(#id48)"><path fill="rgb(94.898987%, 34.509277%, 24.308777%)" d="M 146.207031 70.285156 C 146.050781 70.234375 128.753906 71.007812 126.183594 74.179688 C 123.613281 77.351562 127.722656 86.835938 132.785156 89.707031 C 139.457031 95.683594 144.097656 111.898438 142.425781 114.308594 C 140.753906 116.714844 166.5625 124.273438 167.472656 123.058594 C 168.378906 121.84375 171.9375 90.992188 156.527344 76.378906 C 150.257812 71.09375 146.207031 70.285156 146.207031 70.285156 " fill-opacity="1" fill-rule="nonzero"/></g></g></g></g><g clip-path="url(#id49)"><g clip-path="url(#id50)"><g clip-path="url(#id51)"><g clip-path="url(#id52)"><path fill="rgb(72.938538%, 26.669312%, 18.03894%)" d="M 159.308594 120.984375 C 160.132812 109.9375 159.628906 98.75 156.175781 88.113281 C 156.082031 87.828125 155.679688 88.027344 155.714844 88.28125 C 156.464844 93.789062 157.960938 99.15625 158.484375 104.707031 C 159.003906 110.164062 158.746094 115.636719 158.375 121.09375 C 158.335938 121.683594 159.269531 121.503906 159.308594 120.984375 " fill-opacity="1" fill-rule="nonzero"/></g></g></g></g><g clip-path="url(#id53)"><g clip-path="url(#id54)"><g clip-path="url(#id55)"><g clip-path="url(#id56)"><path fill="rgb(18.818665%, 18.818665%, 19.60907%)" d="M 163.144531 93.289062 L 152.359375 94.296875 L 153.410156 99.59375 L 164.390625 97.75 L 163.144531 93.289062 " fill-opacity="1" fill-rule="nonzero"/></g></g></g></g><g clip-path="url(#id57)"><g clip-path="url(#id58)"><g clip-path="url(#id59)"><g clip-path="url(#id60)"><path fill="rgb(27.059937%, 63.529968%, 74.899292%)" d="M 88.484375 81.542969 C 88.484375 81.542969 78.363281 102.292969 79.339844 103.414062 C 80.316406 104.539062 82.425781 105.136719 83.164062 104.21875 C 83.898438 103.300781 88.03125 95.023438 88.195312 95 C 88.359375 94.976562 180.183594 111.15625 181.257812 111.824219 C 182.332031 112.488281 184.378906 106.601562 184.378906 106.601562 L 91.785156 88.488281 C 91.785156 88.488281 94.320312 81.890625 94.539062 81.074219 C 94.757812 80.257812 89.898438 79.65625 88.484375 81.542969 " fill-opacity="1" fill-rule="nonzero"/></g></g></g></g><g clip-path="url(#id61)"><g clip-path="url(#id62)"><g clip-path="url(#id63)"><g clip-path="url(#id64)"><path fill="rgb(97.648621%, 69.018555%, 56.469727%)" d="M 159.210938 75.769531 C 159.210938 75.769531 171.097656 69.964844 172.660156 70.152344 C 172.660156 70.152344 164.839844 96.714844 163.433594 97.363281 C 162.03125 98.011719 157.023438 94.195312 154.894531 93.972656 C 152.765625 93.753906 153.0625 96.066406 152.222656 100.078125 C 151.386719 104.089844 146.546875 106.609375 147.042969 108.75 C 147.542969 110.886719 151.261719 109.160156 154.179688 111.476562 C 157.101562 113.792969 161.5 112.644531 163.128906 113.796875 C 164.757812 114.949219 168.15625 104.101562 168.972656 103.011719 C 169.789062 101.921875 168.980469 100.464844 169.03125 100.308594 C 169.082031 100.152344 192.378906 61.0625 183.863281 52.46875 C 181.660156 51.210938 178.042969 55.167969 178.042969 55.167969 L 157.328125 65.148438 L 159.210938 75.769531 " fill-opacity="1" fill-rule="nonzero"/></g></g></g></g><g clip-path="url(#id65)"><g clip-path="url(#id66)"><g clip-path="url(#id67)"><g clip-path="url(#id68)"><path fill="rgb(18.818665%, 18.818665%, 19.60907%)" d="M 160.101562 62.058594 C 160.101562 62.058594 157.230469 62.917969 157.203125 64.53125 C 151.976562 65.910156 145.625 66.773438 143.757812 70.933594 C 141.890625 75.089844 143.699219 76.441406 143.699219 76.441406 C 143.699219 76.441406 140.648438 81.742188 149.164062 87.527344 C 157.679688 93.316406 162.871094 90.144531 156.574219 81.574219 C 158.585938 81.25 157.859375 79.332031 158.472656 78.683594 C 159.089844 78.035156 162.042969 79.523438 162.292969 78.925781 C 162.539062 78.328125 159.96875 63.726562 160.101562 62.058594 " fill-opacity="1" fill-rule="nonzero"/></g></g></g></g><g clip-path="url(#id69)"><g clip-path="url(#id70)"><g clip-path="url(#id71)"><g clip-path="url(#id72)"><path fill="rgb(97.648621%, 69.018555%, 56.469727%)" d="M 87.742188 89.367188 C 87.742188 89.367188 92.671875 89.085938 93.234375 87.15625 C 93.792969 85.222656 84.679688 80.652344 81.074219 82.90625 C 77.472656 85.15625 80.039062 87.570312 79.695312 87.507812 C 79.347656 87.445312 76.425781 88.589844 76.09375 90.546875 C 75.757812 92.5 77.78125 93.671875 77.78125 93.671875 C 77.78125 93.671875 75.378906 94.324219 75.679688 95.824219 C 75.984375 97.324219 77.070312 97.648438 77.070312 97.648438 C 77.070312 97.648438 75.929688 98.316406 76.507812 99.382812 C 77.082031 100.453125 83.507812 103.300781 84.691406 101.785156 C 85.875 100.269531 83.007812 98.515625 83.007812 98.515625 C 83.007812 98.515625 86.398438 98.847656 86.886719 97.402344 C 87.378906 95.957031 84.089844 94.375 84.089844 94.375 C 84.089844 94.375 88.304688 95.179688 89.464844 92.910156 C 90.621094 90.640625 87.742188 89.367188 87.742188 89.367188 " fill-opacity="1" fill-rule="nonzero"/></g></g></g></g><g clip-path="url(#id73)"><g clip-path="url(#id74)"><g clip-path="url(#id75)"><g clip-path="url(#id76)"><path fill="rgb(21.179199%, 29.019165%, 31.759644%)" d="M 178.929688 104.777344 C 178.929688 104.777344 175.429688 110.585938 175.796875 111.058594 C 176.164062 111.53125 183.015625 112.800781 183.214844 113.410156 C 183.417969 114.019531 184.644531 119.382812 187.824219 121.175781 C 191.007812 122.96875 205.460938 126.074219 208.667969 125.996094 C 211.875 125.914062 229.210938 105.820312 227.445312 97.933594 C 225.257812 96.390625 200.070312 93.125 195.640625 94.316406 C 191.207031 95.507812 184.171875 105.828125 184.171875 105.828125 L 178.929688 104.777344 " fill-opacity="1" fill-rule="nonzero"/></g></g></g></g><g clip-path="url(#id77)"><g clip-path="url(#id78)"><g clip-path="url(#id79)"><g clip-path="url(#id80)"><path fill="rgb(16.859436%, 23.529053%, 25.878906%)" d="M 219.5625 112.542969 C 209.511719 110.757812 199.449219 108.675781 189.324219 107.363281 C 189.769531 106.527344 190.246094 105.761719 190.6875 105.113281 C 193.328125 101.269531 196.867188 98.976562 200.847656 96.742188 C 201.332031 96.46875 201.023438 95.804688 200.5 95.96875 C 195.542969 97.492188 191.210938 101.855469 188.703125 106.257812 C 186.566406 110.011719 185.09375 115.804688 189.78125 118.355469 C 190 118.472656 190.238281 118.117188 190.003906 117.980469 C 186.339844 115.847656 187.285156 111.511719 188.964844 108.0625 C 188.980469 108.070312 188.992188 108.074219 189.007812 108.078125 C 198.984375 110.351562 209.164062 111.867188 219.234375 113.65625 C 219.914062 113.777344 220.34375 112.683594 219.5625 112.542969 " fill-opacity="1" fill-rule="nonzero"/></g></g></g></g><g clip-path="url(#id81)"><g clip-path="url(#id82)"><g clip-path="url(#id83)"><g clip-path="url(#id84)"><path fill="rgb(87.449646%, 56.858826%, 51.368713%)" d="M 173.066406 70.375 C 173.753906 67.953125 174.917969 65.800781 175.757812 63.453125 C 175.878906 63.117188 175.398438 63.023438 175.214844 63.230469 C 174.742188 63.761719 174.339844 64.363281 173.984375 65.003906 C 173.941406 64.878906 173.898438 64.753906 173.859375 64.628906 C 173.753906 64.269531 173.738281 63.691406 173.324219 63.5625 C 173.199219 63.523438 173.042969 63.550781 172.957031 63.65625 C 172.632812 64.042969 172.847656 64.507812 172.996094 64.941406 C 173.125 65.324219 173.273438 65.699219 173.46875 66.050781 C 172.871094 67.414062 172.476562 68.886719 172.21875 70.265625 C 172.113281 70.839844 172.929688 70.859375 173.066406 70.375 " fill-opacity="1" fill-rule="nonzero"/></g></g></g></g><g clip-path="url(#id85)"><g clip-path="url(#id86)"><g clip-path="url(#id87)"><g clip-path="url(#id88)"><path fill="rgb(87.449646%, 56.858826%, 51.368713%)" d="M 163.949219 110.753906 C 163.328125 110.011719 162.375 109.59375 161.4375 109.378906 C 160.109375 109.074219 159.359375 109.816406 158.113281 109.914062 C 156.191406 110.0625 156.320312 108.191406 155.328125 107.222656 C 155.019531 106.921875 154.648438 106.769531 154.21875 106.726562 C 153.667969 106.675781 151.183594 107.417969 151.277344 106.257812 C 151.304688 105.933594 150.804688 106.046875 150.769531 106.320312 C 150.660156 107.152344 151.277344 107.71875 152.082031 107.820312 C 153.285156 107.972656 154.28125 107.671875 154.910156 109.019531 C 155.136719 109.507812 155.355469 109.929688 155.765625 110.285156 C 156.527344 110.957031 157.605469 111.171875 158.574219 110.933594 C 159.550781 110.695312 160.210938 110.261719 161.253906 110.550781 C 162.027344 110.761719 162.648438 111.25 163.425781 111.4375 C 163.738281 111.515625 164.195312 111.050781 163.949219 110.753906 " fill-opacity="1" fill-rule="nonzero"/></g></g></g></g><g clip-path="url(#id89)"><g clip-path="url(#id90)"><g clip-path="url(#id91)"><g clip-path="url(#id92)"><path fill="rgb(12.548828%, 12.548828%, 12.939453%)" d="M 156.375 81.867188 C 156.429688 81.4375 155.855469 81.488281 155.648438 81.675781 C 154.082031 83.085938 151.871094 83.371094 149.867188 82.878906 C 149.605469 82.8125 149.347656 83.28125 149.652344 83.371094 C 151.574219 83.953125 153.503906 83.660156 155.230469 82.773438 C 154.78125 83.90625 154.144531 84.851562 153.5 85.941406 C 153.269531 86.335938 153.765625 86.710938 154.109375 86.441406 C 155.457031 85.371094 156.175781 83.535156 156.375 81.867188 " fill-opacity="1" fill-rule="nonzero"/></g></g></g></g><g clip-path="url(#id93)"><g clip-path="url(#id94)"><g clip-path="url(#id95)"><g clip-path="url(#id96)"><path fill="rgb(18.818665%, 18.818665%, 19.60907%)" d="M 164.683594 114.960938 L 154.59375 113.289062 L 154.332031 117.929688 L 164.128906 119.902344 L 164.683594 114.960938 " fill-opacity="1" fill-rule="nonzero"/></g></g></g></g><g clip-path="url(#id97)"><g clip-path="url(#id98)"><g clip-path="url(#id99)"><g clip-path="url(#id100)"><path fill="rgb(39.608765%, 29.019165%, 30.589294%)" d="M 144.921875 48.351562 C 145.71875 46.601562 141.464844 46.679688 140.636719 46.714844 C 139.898438 46.75 135.734375 47.082031 136.226562 48.515625 C 136.5 49.3125 138.183594 49.140625 138.777344 49.144531 C 139 49.144531 139.222656 49.140625 139.445312 49.140625 C 140.246094 49.257812 141.070312 49.269531 141.871094 49.234375 C 142.667969 49.199219 144.503906 49.269531 144.921875 48.351562 " fill-opacity="1" fill-rule="nonzero"/></g></g></g></g><g clip-path="url(#id101)"><g clip-path="url(#id102)"><g clip-path="url(#id103)"><g clip-path="url(#id104)"><path fill="rgb(1.568604%, 2.349854%, 2.349854%)" d="M 139.949219 53.234375 C 139.367188 52.609375 138.332031 52.40625 137.519531 52.246094 C 137.078125 52.160156 136.628906 52.109375 136.179688 52.085938 C 136.664062 51.898438 137.167969 51.746094 137.675781 51.621094 C 138.605469 51.390625 139.765625 51.097656 140.710938 51.359375 C 140.984375 51.4375 141.308594 51.019531 140.980469 50.898438 C 138.941406 50.160156 136.363281 51.347656 134.519531 52.164062 C 134.171875 52.320312 134.152344 52.820312 134.597656 52.8125 C 135.507812 52.800781 136.398438 52.828125 137.292969 53.007812 C 138.105469 53.171875 138.882812 53.582031 139.707031 53.648438 C 139.929688 53.667969 140.121094 53.417969 139.949219 53.234375 " fill-opacity="1" fill-rule="nonzero"/></g></g></g></g><g clip-path="url(#id105)"><g clip-path="url(#id106)"><g clip-path="url(#id107)"><g clip-path="url(#id108)"><path fill="rgb(100%, 100%, 100%)" d="M 128.730469 59.375 C 128.847656 59.328125 140.40625 55.46875 141.175781 56.339844 C 141.949219 57.214844 137.714844 65.5625 132.011719 64.773438 C 128.070312 63.734375 127.574219 59.800781 128.730469 59.375 " fill-opacity="1" fill-rule="nonzero"/></g></g></g></g><g clip-path="url(#id109)"><g clip-path="url(#id110)"><g clip-path="url(#id111)"><g clip-path="url(#id112)"><path fill="rgb(31.759644%, 77.249146%, 87.449646%)" d="M 161.386719 53.03125 C 159.847656 50.109375 157.5625 47.28125 154.648438 45.632812 C 152.289062 44.300781 149.308594 43.042969 146.640625 44.039062 C 146.339844 44.152344 146.316406 44.695312 146.710938 44.613281 C 149.148438 44.117188 152.597656 45.6875 154.585938 47.027344 C 157.058594 48.691406 158.964844 51.101562 160.339844 53.714844 C 160.660156 54.328125 161.710938 53.652344 161.386719 53.03125 " fill-opacity="1" fill-rule="nonzero"/></g></g></g></g><g clip-path="url(#id113)"><g clip-path="url(#id114)"><g clip-path="url(#id115)"><g clip-path="url(#id116)"><path fill="rgb(31.759644%, 77.249146%, 87.449646%)" d="M 162.738281 57.871094 C 162.945312 56.949219 162.589844 55.980469 162.226562 55.140625 C 161.949219 54.503906 160.910156 54.902344 161.097656 55.546875 C 161.328125 56.335938 161.667969 57.023438 161.574219 57.867188 C 161.496094 58.550781 162.609375 58.425781 162.738281 57.871094 " fill-opacity="1" fill-rule="nonzero"/></g></g></g></g><g clip-path="url(#id117)"><g clip-path="url(#id118)"><g clip-path="url(#id119)"><g clip-path="url(#id120)"><path fill="rgb(18.818665%, 18.818665%, 19.60907%)" d="M 202.960938 137.792969 C 203.375 135.78125 203.605469 133.625 202.910156 131.644531 C 202.148438 129.457031 200.359375 127.957031 198.421875 126.816406 C 196.429688 125.644531 194.183594 124.257812 191.789062 124.59375 C 191.308594 124.660156 191.21875 125.355469 191.773438 125.34375 C 193.886719 125.300781 195.980469 126.671875 197.714844 127.75 C 199.488281 128.851562 201.167969 130.21875 201.816406 132.277344 C 202.367188 134.019531 202.164062 135.894531 201.804688 137.648438 C 201.371094 139.792969 200.863281 141.976562 199.179688 143.484375 C 198.691406 143.925781 199.328125 144.511719 199.828125 144.199219 C 201.949219 142.882812 202.492188 140.070312 202.960938 137.792969 " fill-opacity="1" fill-rule="nonzero"/></g></g></g></g><g clip-path="url(#id121)"><g clip-path="url(#id122)"><g clip-path="url(#id123)"><g clip-path="url(#id124)"><path fill="rgb(18.818665%, 18.818665%, 19.60907%)" d="M 168.777344 153.371094 C 169.96875 150.054688 170.847656 146.601562 171.085938 143.078125 C 171.503906 136.964844 169.832031 129.941406 164.726562 126.074219 C 164.394531 125.828125 163.933594 126.289062 164.21875 126.605469 C 167.804688 130.558594 169.835938 135.480469 169.949219 140.8125 C 170.011719 143.621094 169.601562 146.414062 168.898438 149.125 C 168.644531 150.105469 166.691406 157.34375 165.585938 156.929688 C 164.976562 156.699219 164.335938 157.585938 164.996094 157.929688 C 167.214844 159.097656 168.328125 154.609375 168.777344 153.371094 " fill-opacity="1" fill-rule="nonzero"/></g></g></g></g><g clip-path="url(#id125)"><g clip-path="url(#id126)"><g clip-path="url(#id127)"><g clip-path="url(#id128)"><path fill="rgb(18.818665%, 18.818665%, 19.60907%)" d="M 123.03125 112.742188 C 123.03125 112.742188 111.65625 136.699219 115.707031 160.476562 L 112.847656 160.476562 C 112.847656 160.476562 103.164062 139.328125 117.757812 111.609375 C 119.457031 111.359375 123.03125 112.742188 123.03125 112.742188 " fill-opacity="1" fill-rule="nonzero"/></g></g></g></g><g clip-path="url(#id129)"><g clip-path="url(#id130)"><g clip-path="url(#id131)"><g clip-path="url(#id132)"><path fill="rgb(98.429871%, 74.508667%, 25.099182%)" d="M 100.355469 117.53125 C 100.761719 116.125 99.859375 114.464844 98.289062 114.378906 C 91.4375 114 84.566406 114.363281 77.820312 115.617188 C 74.492188 116.234375 71.191406 117.035156 67.953125 118.023438 C 65.277344 118.84375 61.289062 119.886719 59.605469 122.394531 C 59.308594 122.59375 59.007812 122.78125 58.695312 122.96875 C 57.269531 123.839844 58.152344 125.730469 59.734375 125.28125 C 60.929688 124.941406 62.496094 125.148438 63.890625 124.8125 C 65.484375 124.429688 67.046875 123.886719 68.617188 123.40625 C 71.605469 122.488281 74.625 121.722656 77.699219 121.164062 C 83.941406 120.027344 90.308594 119.597656 96.648438 119.945312 C 98.25 120.035156 99.886719 119.136719 100.355469 117.53125 " fill-opacity="1" fill-rule="nonzero"/></g></g></g></g><g clip-path="url(#id133)"><g clip-path="url(#id134)"><g clip-path="url(#id135)"><g clip-path="url(#id136)"><path fill="rgb(98.429871%, 74.508667%, 25.099182%)" d="M 160.304688 131.601562 C 159.945312 129.847656 158.109375 129.371094 156.605469 128.960938 C 154.890625 128.492188 153.179688 128.007812 151.488281 127.453125 C 148.042969 126.324219 144.6875 125.109375 141.308594 123.789062 C 135.699219 121.589844 129.195312 119.554688 123.152344 120.882812 C 122.25 121.078125 121.457031 122.824219 122.839844 122.847656 C 129.179688 122.949219 134.9375 124.339844 140.777344 126.789062 C 143.925781 128.113281 146.792969 129.890625 149.824219 131.4375 C 152.472656 132.789062 156.613281 135.550781 159.476562 133.46875 C 160.089844 133.023438 160.460938 132.367188 160.304688 131.601562 " fill-opacity="1" fill-rule="nonzero"/></g></g></g></g><g clip-path="url(#id137)"><g clip-path="url(#id138)"><g clip-path="url(#id139)"><g clip-path="url(#id140)"><path fill="rgb(98.429871%, 74.508667%, 25.099182%)" d="M 195.691406 132.949219 C 194.273438 133.363281 193.035156 134.351562 191.699219 134.96875 C 190.191406 135.664062 188.609375 136.117188 186.964844 136.339844 C 183.683594 136.789062 180.421875 136.4375 177.261719 135.414062 C 176.75 135.246094 176.167969 136.011719 176.761719 136.269531 C 179.941406 137.667969 183.464844 138.210938 186.929688 137.953125 C 190.027344 137.726562 194.648438 137.160156 196.871094 134.753906 C 197.757812 133.792969 196.871094 132.609375 195.691406 132.949219 " fill-opacity="1" fill-rule="nonzero"/></g></g></g></g><g clip-path="url(#id141)"><g clip-path="url(#id142)"><g clip-path="url(#id143)"><g clip-path="url(#id144)"><path fill="rgb(16.468811%, 32.939148%, 38.42926%)" d="M 170.691406 163.503906 C 170.691406 163.503906 187.835938 170.195312 202.945312 149.972656 C 208.386719 142.6875 206.429688 140.71875 196.808594 145.765625 C 190.058594 149.304688 164.925781 156.757812 156.585938 155.289062 C 148.242188 153.820312 115.773438 128.632812 103.414062 132.269531 C 91.054688 135.90625 110.089844 138.984375 106.734375 142.351562 C 103.375 145.71875 76.722656 127.730469 62.324219 142.238281 C 47.921875 156.746094 94.238281 152.40625 94.242188 153.976562 C 94.246094 155.550781 72.835938 154.660156 75.589844 165.328125 C 78.347656 175.996094 89.8125 169.089844 108.609375 164.734375 C 127.40625 160.375 137.851562 175.320312 170.691406 163.503906 " fill-opacity="1" fill-rule="nonzero"/></g></g></g></g><g clip-path="url(#id145)"><g clip-path="url(#id146)"><g clip-path="url(#id147)"><g clip-path="url(#id148)"><path fill="rgb(30.589294%, 61.569214%, 69.40918%)" d="M 183.066406 148.285156 C 179.328125 150.589844 175.324219 152.4375 171.074219 153.589844 C 170.035156 153.871094 168.984375 154.113281 167.917969 154.265625 C 167.5625 154.316406 166.960938 154.496094 166.621094 154.308594 C 166.203125 154.078125 166.046875 153.183594 165.78125 152.792969 C 164.402344 150.75 161.984375 149.558594 159.679688 148.898438 C 155.121094 147.589844 150.640625 146.546875 146.269531 144.640625 C 141.953125 142.757812 137.859375 140.433594 133.96875 137.78125 C 129.882812 134.996094 126.199219 131.617188 122.003906 128.988281 C 117.921875 126.433594 113.328125 124.476562 108.546875 123.746094 C 105.535156 123.285156 101.976562 123.898438 99.609375 125.859375 C 98.335938 124.90625 96.882812 124.320312 95.089844 124.386719 C 92.359375 124.484375 89.597656 125.976562 87.835938 128.027344 C 86.175781 129.953125 85.625 132.390625 86.664062 134.5625 C 86.664062 134.921875 86.703125 135.28125 86.792969 135.636719 C 86.972656 136.363281 87.316406 137.058594 87.761719 137.703125 C 87.429688 137.585938 87.101562 137.464844 86.769531 137.347656 C 79.921875 134.875 72.71875 132.183594 65.328125 133.667969 C 61.410156 134.453125 57.59375 136.550781 55.652344 140.175781 C 54.054688 143.152344 53.847656 146.992188 55.828125 149.875 C 57.875 152.863281 61.898438 154.03125 65.257812 152.785156 C 68.570312 151.554688 70.609375 148.144531 70.707031 144.695312 C 73.625 144.957031 76.597656 142.714844 76.347656 139.613281 C 81.199219 140.496094 85.941406 141.867188 90.78125 142.800781 C 93.105469 143.25 95.441406 143.613281 97.785156 143.902344 C 97.921875 144.207031 98.101562 144.511719 98.335938 144.824219 C 99.878906 146.886719 102.347656 148.304688 104.910156 148.585938 C 109.292969 149.070312 113.121094 145.007812 113.609375 140.769531 C 113.863281 140.832031 114.109375 140.882812 114.355469 140.921875 C 115.878906 141.148438 117.289062 140.671875 118.328125 139.753906 C 118.757812 140.375 119.238281 140.964844 119.722656 141.515625 C 120.957031 142.910156 122.367188 144.035156 124.292969 144.160156 C 126.257812 144.289062 128.035156 143.351562 129.480469 142.117188 C 134.746094 145.738281 140.394531 148.871094 146.375 151.125 C 146.792969 151.28125 147.214844 151.433594 147.636719 151.578125 C 146.410156 154.246094 148.773438 157.023438 151.703125 156.890625 C 152.386719 156.859375 153.246094 156.59375 154.09375 156.167969 C 154.457031 156.703125 154.859375 157.191406 155.246094 157.59375 C 156.574219 158.972656 158.460938 159.402344 160.253906 158.683594 C 160.960938 158.402344 161.722656 157.878906 162.355469 157.222656 C 162.425781 157.25 162.492188 157.28125 162.5625 157.304688 C 163.410156 157.585938 164.300781 157.730469 165.1875 157.722656 C 168.394531 157.691406 171.875 156.617188 174.890625 155.609375 C 178.375 154.449219 181.675781 152.855469 184.742188 150.835938 C 186.632812 149.589844 184.992188 147.097656 183.066406 148.285156 " fill-opacity="1" fill-rule="nonzero"/></g></g></g></g><g clip-path="url(#id149)"><g clip-path="url(#id150)"><g clip-path="url(#id151)"><g clip-path="url(#id152)"><path fill="rgb(30.589294%, 61.569214%, 69.40918%)" d="M 95.953125 151.9375 C 93.714844 153.035156 91.242188 153.652344 88.769531 153.980469 C 87.871094 154.101562 86.667969 154.347656 85.796875 153.984375 C 85.21875 153.742188 84.738281 153.191406 84.183594 152.894531 C 83.601562 152.585938 82.972656 152.394531 82.324219 152.265625 C 76.894531 151.195312 71.800781 155.832031 70.625 160.875 C 69.308594 166.511719 75.042969 169.910156 79.96875 167.945312 C 82.332031 167 84.601562 164.984375 84.972656 162.378906 C 85.859375 162.644531 86.859375 162.625 87.792969 162.25 C 89.917969 161.398438 91.285156 158.949219 90.539062 156.808594 C 92.683594 155.988281 94.699219 154.972656 96.746094 153.699219 C 97.757812 153.070312 97.132812 151.359375 95.953125 151.9375 " fill-opacity="1" fill-rule="nonzero"/></g></g></g></g><g fill="rgb(96.859741%, 58.428955%, 17.248535%)" fill-opacity="1"><g transform="translate(42.555906, 185.857399)"><g><path d="M 26.5 8.0625 C 26.5 8.0625 26.492188 8.0625 26.484375 8.0625 C 25.660156 7.769531 25.410156 6.6875 25.734375 4.8125 C 25.878906 4 26.597656 1.363281 27.890625 -3.09375 C 29.191406 -7.550781 29.695312 -9.832031 29.40625 -9.9375 C 28.957031 -10.09375 27.523438 -8.910156 25.109375 -6.390625 C 21.222656 -2.304688 19.050781 -0.101562 18.59375 0.21875 C 17.757812 0.832031 17.035156 1.03125 16.421875 0.8125 C 15.804688 0.59375 15.421875 -0.015625 15.265625 -1.015625 C 15.179688 -1.460938 15.125 -2.671875 15.09375 -4.640625 L 15.015625 -9.390625 C 14.898438 -13.203125 14.671875 -15.171875 14.328125 -15.296875 C 13.984375 -15.421875 12.703125 -13.429688 10.484375 -9.328125 C 9.617188 -7.722656 8.847656 -6.234375 8.171875 -4.859375 C 7.492188 -3.492188 6.941406 -2.476562 6.515625 -1.8125 C 5.785156 -0.6875 5.09375 -0.242188 4.4375 -0.484375 C 3.925781 -0.660156 3.816406 -1.148438 4.109375 -1.953125 C 4.398438 -2.753906 4.769531 -3.601562 5.21875 -4.5 C 5.664062 -5.40625 6.660156 -7.757812 8.203125 -11.5625 C 9.753906 -15.363281 10.851562 -18.164062 11.5 -19.96875 C 12.25 -22.050781 13.347656 -22.832031 14.796875 -22.3125 C 15.515625 -22.050781 16.078125 -21.085938 16.484375 -19.421875 C 16.703125 -18.578125 17.128906 -16.078125 17.765625 -11.921875 C 18.410156 -7.765625 18.816406 -5.65625 18.984375 -5.59375 C 19.148438 -5.53125 20.628906 -6.738281 23.421875 -9.21875 C 26.222656 -11.695312 28.222656 -13.382812 29.421875 -14.28125 C 31.191406 -15.59375 32.503906 -16.09375 33.359375 -15.78125 C 34.429688 -15.394531 34.882812 -14.46875 34.71875 -13 C 34.625 -12.125 34.109375 -10.382812 33.171875 -7.78125 L 32.546875 -5.921875 C 32.328125 -5.304688 32.109375 -4.691406 31.890625 -4.078125 L 29.46875 2.125 C 29.269531 2.6875 29.007812 3.5 28.6875 4.5625 L 28.21875 6.109375 L 28.03125 6.875 C 27.65625 7.90625 27.144531 8.300781 26.5 8.0625 Z M 26.5 8.0625 "/></g></g></g><g fill="rgb(96.859741%, 58.428955%, 17.248535%)" fill-opacity="1"><g transform="translate(79.381552, 198.140321)"><g><path d="M 16.25 -0.1875 C 18.363281 0.21875 19.347656 0.796875 19.203125 1.546875 C 19.054688 2.304688 18.519531 2.707031 17.59375 2.75 C 16.09375 2.832031 13.472656 2.507812 9.734375 1.78125 L 9.078125 1.65625 C 6.273438 1.113281 4.613281 0.492188 4.09375 -0.203125 C 3.570312 -0.910156 3.550781 -2.503906 4.03125 -4.984375 L 4.15625 -5.640625 L 4.3125 -6.296875 C 4.820312 -8.929688 5.394531 -11.351562 6.03125 -13.5625 C 6.675781 -15.769531 7.242188 -18.140625 7.734375 -20.671875 C 8.222656 -23.203125 8.800781 -24.597656 9.46875 -24.859375 C 10.90625 -25.460938 13.492188 -25.398438 17.234375 -24.671875 L 20.453125 -24.046875 C 21.546875 -23.835938 22.316406 -23.59375 22.765625 -23.3125 C 23.222656 -23.03125 23.398438 -22.617188 23.296875 -22.078125 C 23.210938 -21.628906 22.707031 -21.367188 21.78125 -21.296875 C 20.851562 -21.222656 19.269531 -21.3125 17.03125 -21.5625 C 14.789062 -21.820312 13.484375 -21.867188 13.109375 -21.703125 C 12.742188 -21.535156 12.332031 -21.0625 11.875 -20.28125 C 11.414062 -19.5 11.0625 -18.457031 10.8125 -17.15625 C 10.5625 -15.863281 10.710938 -15.03125 11.265625 -14.65625 C 11.816406 -14.289062 13.1875 -13.820312 15.375 -13.25 C 17.570312 -12.6875 18.726562 -12.378906 18.84375 -12.328125 C 19.226562 -12.085938 19.351562 -11.640625 19.21875 -10.984375 C 19.09375 -10.328125 18.59375 -9.960938 17.71875 -9.890625 C 17.351562 -9.867188 16.125 -9.972656 14.03125 -10.203125 C 11.9375 -10.429688 10.5625 -10.441406 9.90625 -10.234375 C 9.25 -10.035156 8.765625 -9.128906 8.453125 -7.515625 C 7.953125 -4.898438 7.9375 -3.171875 8.40625 -2.328125 C 8.71875 -1.765625 9.90625 -1.285156 11.96875 -0.890625 C 12.425781 -0.804688 13.054688 -0.703125 13.859375 -0.578125 Z M 16.25 -0.1875 "/></g></g></g><g fill="rgb(96.859741%, 58.428955%, 17.248535%)" fill-opacity="1"><g transform="translate(107.336974, 203.245045)"><g><path d="M 5.265625 -25.1875 C 5.492188 -25.476562 5.9375 -25.609375 6.59375 -25.578125 C 7.25 -25.546875 7.910156 -25.195312 8.578125 -24.53125 C 10.535156 -22.59375 12.816406 -19.320312 15.421875 -14.71875 C 18.035156 -10.113281 19.570312 -7.800781 20.03125 -7.78125 C 20.414062 -7.757812 20.816406 -10.007812 21.234375 -14.53125 C 21.660156 -19.050781 22.015625 -21.882812 22.296875 -23.03125 C 22.578125 -24.1875 23.101562 -24.742188 23.875 -24.703125 C 24.28125 -24.679688 24.570312 -24.523438 24.75 -24.234375 C 24.925781 -23.953125 24.988281 -23.285156 24.9375 -22.234375 L 24.90625 -21.515625 L 24.359375 -16.265625 C 24.128906 -13.984375 23.988281 -12.226562 23.9375 -11 L 23.875 -10.265625 C 23.84375 -9.773438 23.78125 -8.65625 23.6875 -6.90625 C 23.601562 -5.15625 23.398438 -3.425781 23.078125 -1.71875 C 22.898438 -0.75 22.445312 -0.28125 21.71875 -0.3125 C 20.707031 -0.363281 19.726562 -1.101562 18.78125 -2.53125 C 17.820312 -3.945312 16.613281 -6.132812 15.15625 -9.09375 C 11.59375 -16.300781 9.347656 -19.925781 8.421875 -19.96875 C 8.265625 -19.976562 7.832031 -17.128906 7.125 -11.421875 C 6.425781 -5.722656 6.070312 -2.835938 6.0625 -2.765625 C 5.726562 -1.410156 5.191406 -0.75 4.453125 -0.78125 C 3.710938 -0.820312 3.367188 -1.300781 3.421875 -2.21875 L 3.484375 -3.578125 L 4.78125 -20.453125 L 4.859375 -23.421875 C 4.898438 -24.316406 5.035156 -24.90625 5.265625 -25.1875 Z M 5.265625 -25.1875 "/></g></g></g><g fill="rgb(96.859741%, 58.428955%, 17.248535%)" fill-opacity="1"><g transform="translate(140.826407, 204.338936)"><g><path d="M 9.21875 -4.125 L 10.59375 -4.265625 C 14.4375 -4.660156 16.707031 -7 17.40625 -11.28125 C 17.625 -12.664062 17.65625 -14.140625 17.5 -15.703125 L 17.4375 -16.359375 C 17.269531 -17.972656 16.921875 -19.410156 16.390625 -20.671875 C 15.878906 -21.898438 15.296875 -22.875 14.640625 -23.59375 C 13.128906 -25.257812 11.128906 -25.976562 8.640625 -25.75 L 7.796875 -25.65625 C 5.953125 -25.46875 4.960938 -24.972656 4.828125 -24.171875 C 4.722656 -23.617188 4.882812 -21.265625 5.3125 -17.109375 L 6.09375 -9.4375 L 6.140625 -9.171875 L 6.203125 -8.5625 L 6.59375 -5.953125 C 6.675781 -5.117188 6.882812 -4.609375 7.21875 -4.421875 C 7.738281 -4.140625 8.40625 -4.039062 9.21875 -4.125 Z M 0.96875 -24.8125 C 0.84375 -25.96875 1.160156 -26.726562 1.921875 -27.09375 C 3.066406 -27.632812 4.960938 -28.039062 7.609375 -28.3125 L 8.03125 -28.359375 C 11.863281 -28.742188 14.882812 -28.035156 17.09375 -26.234375 C 18.257812 -25.285156 19.226562 -24.023438 20 -22.453125 C 20.78125 -20.878906 21.269531 -19.148438 21.46875 -17.265625 L 21.609375 -15.875 C 21.785156 -14.070312 21.6875 -12.253906 21.3125 -10.421875 C 20.5625 -6.890625 18.753906 -4.332031 15.890625 -2.75 C 14.335938 -1.914062 12.617188 -1.398438 10.734375 -1.203125 L 9.078125 -1.03125 C 6.816406 -0.800781 5.207031 -0.894531 4.25 -1.3125 C 3.757812 -1.53125 3.457031 -2.210938 3.34375 -3.359375 L 3.296875 -4.171875 C 3.222656 -5.535156 3.144531 -6.648438 3.0625 -7.515625 L 2.953125 -8.3125 L 2.828125 -9.578125 L 2.578125 -11.609375 L 2.453125 -12.84375 L 2.34375 -13.671875 L 2.09375 -16.15625 L 1.90625 -17.765625 L 1.65625 -19.34375 C 1.570312 -19.863281 1.503906 -20.382812 1.453125 -20.90625 L 1.046875 -24.03125 Z M 0.96875 -24.8125 "/></g></g></g><g fill="rgb(96.859741%, 58.428955%, 17.248535%)" fill-opacity="1"><g transform="translate(172.711497, 200.495097)"><g><path d="M 14.6875 -6.96875 C 16.769531 -7.476562 17.898438 -7.359375 18.078125 -6.609375 C 18.265625 -5.859375 17.945312 -5.273438 17.125 -4.859375 C 15.800781 -4.160156 13.296875 -3.359375 9.609375 -2.453125 L 8.953125 -2.296875 C 6.179688 -1.609375 4.40625 -1.476562 3.625 -1.90625 C 2.851562 -2.332031 2.171875 -3.773438 1.578125 -6.234375 L 1.421875 -6.859375 L 1.28125 -7.515625 C 0.644531 -10.128906 0.15625 -12.570312 -0.1875 -14.84375 C -0.53125 -17.113281 -1.007812 -19.5 -1.625 -22 C -2.238281 -24.507812 -2.296875 -26.019531 -1.796875 -26.53125 C -0.734375 -27.675781 1.644531 -28.703125 5.34375 -29.609375 L 8.515625 -30.390625 C 9.597656 -30.660156 10.40625 -30.757812 10.9375 -30.6875 C 11.476562 -30.625 11.816406 -30.328125 11.953125 -29.796875 C 12.054688 -29.359375 11.703125 -28.914062 10.890625 -28.46875 C 10.078125 -28.019531 8.597656 -27.4375 6.453125 -26.71875 C 4.304688 -26.007812 3.101562 -25.503906 2.84375 -25.203125 C 2.582031 -24.898438 2.40625 -24.296875 2.3125 -23.390625 C 2.21875 -22.492188 2.328125 -21.40625 2.640625 -20.125 C 2.953125 -18.84375 3.4375 -18.144531 4.09375 -18.03125 C 4.757812 -17.925781 6.207031 -18.070312 8.4375 -18.46875 C 10.675781 -18.863281 11.847656 -19.0625 11.953125 -19.0625 C 12.410156 -19.019531 12.71875 -18.671875 12.875 -18.015625 C 13.03125 -17.367188 12.722656 -16.828125 11.953125 -16.390625 C 11.640625 -16.210938 10.484375 -15.789062 8.484375 -15.125 C 6.484375 -14.46875 5.226562 -13.910156 4.71875 -13.453125 C 4.207031 -12.992188 4.144531 -11.960938 4.53125 -10.359375 C 5.164062 -7.785156 5.878906 -6.210938 6.671875 -5.640625 C 7.179688 -5.253906 8.460938 -5.316406 10.515625 -5.828125 C 10.953125 -5.929688 11.5625 -6.097656 12.34375 -6.328125 Z M 14.6875 -6.96875 "/></g></g></g><g fill="rgb(96.859741%, 58.428955%, 17.248535%)" fill-opacity="1"><g transform="translate(200.03607, 193.368581)"><g><path d="M 15.953125 -13.65625 C 16.191406 -13.007812 16.304688 -12.179688 16.296875 -11.171875 C 16.285156 -9.191406 15.40625 -7.4375 13.65625 -5.90625 C 12.695312 -5.050781 11.414062 -4.3125 9.8125 -3.6875 C 8.207031 -3.0625 6.632812 -2.789062 5.09375 -2.875 C 3.5625 -2.96875 2.390625 -3.273438 1.578125 -3.796875 C 1.171875 -4.054688 0.925781 -4.289062 0.84375 -4.5 C 0.457031 -5.5 0.664062 -6.15625 1.46875 -6.46875 C 1.613281 -6.519531 2.550781 -6.457031 4.28125 -6.28125 C 6.019531 -6.101562 7.632812 -6.304688 9.125 -6.890625 C 10.625 -7.472656 11.628906 -8.273438 12.140625 -9.296875 C 12.648438 -10.316406 12.6875 -11.394531 12.25 -12.53125 C 11.8125 -13.675781 10.835938 -14.484375 9.328125 -14.953125 C 8.429688 -15.234375 6.765625 -15.445312 4.328125 -15.59375 C 1.898438 -15.738281 0.125 -16.050781 -1 -16.53125 C -2.707031 -17.289062 -3.925781 -18.613281 -4.65625 -20.5 C -5.03125 -21.457031 -5.15625 -22.445312 -5.03125 -23.46875 C -4.90625 -24.5 -4.566406 -25.441406 -4.015625 -26.296875 C -2.953125 -27.929688 -1.410156 -29.140625 0.609375 -29.921875 C 2.628906 -30.710938 4.320312 -31.035156 5.6875 -30.890625 C 7.375 -30.710938 8.40625 -30.144531 8.78125 -29.1875 C 9.070312 -28.445312 8.847656 -27.9375 8.109375 -27.65625 C 7.847656 -27.550781 6.988281 -27.535156 5.53125 -27.609375 C 4.070312 -27.679688 2.875 -27.535156 1.9375 -27.171875 C -0.675781 -26.148438 -1.828125 -24.570312 -1.515625 -22.4375 C -1.503906 -22.238281 -1.457031 -22.035156 -1.375 -21.828125 C -1.195312 -21.378906 -0.90625 -20.945312 -0.5 -20.53125 C 0.101562 -19.945312 0.957031 -19.539062 2.0625 -19.3125 C 2.414062 -19.226562 3.851562 -19.113281 6.375 -18.96875 C 8.894531 -18.820312 10.753906 -18.5 11.953125 -18 C 13.785156 -17.25 15.039062 -15.992188 15.71875 -14.234375 Z M 15.953125 -13.65625 "/></g></g></g><g fill="rgb(16.468811%, 32.939148%, 38.42926%)" fill-opacity="1"><g transform="translate(41.729218, 227.552529)"><g><path d="M 2.953125 0 L 0.25 -9.484375 L 2.4375 -9.484375 L 4 -2.890625 L 4.078125 -2.890625 L 5.8125 -9.484375 L 7.6875 -9.484375 L 9.40625 -2.875 L 9.5 -2.875 L 11.0625 -9.484375 L 13.25 -9.484375 L 10.546875 0 L 8.59375 0 L 6.78125 -6.203125 L 6.703125 -6.203125 L 4.90625 0 Z M 2.953125 0 "/></g></g></g><g fill="rgb(16.468811%, 32.939148%, 38.42926%)" fill-opacity="1"><g transform="translate(56.769517, 227.552529)"><g><path d="M 0.828125 0 L 0.828125 -9.484375 L 2.828125 -9.484375 L 2.828125 -5.5625 L 6.890625 -5.5625 L 6.890625 -9.484375 L 8.890625 -9.484375 L 8.890625 0 L 6.890625 0 L 6.890625 -3.921875 L 2.828125 -3.921875 L 2.828125 0 Z M 0.828125 0 "/></g></g></g><g fill="rgb(16.468811%, 32.939148%, 38.42926%)" fill-opacity="1"><g transform="translate(68.032777, 227.552529)"><g><path d="M 2.828125 -9.484375 L 2.828125 0 L 0.828125 0 L 0.828125 -9.484375 Z M 2.828125 -9.484375 "/></g></g></g><g fill="rgb(16.468811%, 32.939148%, 38.42926%)" fill-opacity="1"><g transform="translate(73.227792, 227.552529)"><g><path d="M 0.46875 -7.828125 L 0.46875 -9.484375 L 8.25 -9.484375 L 8.25 -7.828125 L 5.34375 -7.828125 L 5.34375 0 L 3.359375 0 L 3.359375 -7.828125 Z M 0.46875 -7.828125 "/></g></g></g><g fill="rgb(16.468811%, 32.939148%, 38.42926%)" fill-opacity="1"><g transform="translate(83.477371, 227.552529)"><g><path d="M 0.828125 0 L 0.828125 -9.484375 L 7.203125 -9.484375 L 7.203125 -7.828125 L 2.828125 -7.828125 L 2.828125 -5.5625 L 6.875 -5.5625 L 6.875 -3.921875 L 2.828125 -3.921875 L 2.828125 -1.65625 L 7.234375 -1.65625 L 7.234375 0 Z M 0.828125 0 "/></g></g></g><g fill="rgb(16.468811%, 32.939148%, 38.42926%)" fill-opacity="1"><g transform="translate(93.000233, 227.552529)"><g><path d="M 2.953125 0 L 0.25 -9.484375 L 2.4375 -9.484375 L 4 -2.890625 L 4.078125 -2.890625 L 5.8125 -9.484375 L 7.6875 -9.484375 L 9.40625 -2.875 L 9.5 -2.875 L 11.0625 -9.484375 L 13.25 -9.484375 L 10.546875 0 L 8.59375 0 L 6.78125 -6.203125 L 6.703125 -6.203125 L 4.90625 0 Z M 2.953125 0 "/></g></g></g><g fill="rgb(16.468811%, 32.939148%, 38.42926%)" fill-opacity="1"><g transform="translate(108.040534, 227.552529)"><g><path d="M 2.453125 0 L 0.3125 0 L 3.578125 -9.484375 L 6.15625 -9.484375 L 9.4375 0 L 7.28125 0 L 6.578125 -2.15625 L 3.15625 -2.15625 Z M 3.671875 -3.71875 L 6.078125 -3.71875 L 4.90625 -7.3125 L 4.828125 -7.3125 Z M 3.671875 -3.71875 "/></g></g></g><g fill="rgb(16.468811%, 32.939148%, 38.42926%)" fill-opacity="1"><g transform="translate(119.326945, 227.552529)"><g><path d="M 0.46875 -7.828125 L 0.46875 -9.484375 L 8.25 -9.484375 L 8.25 -7.828125 L 5.34375 -7.828125 L 5.34375 0 L 3.359375 0 L 3.359375 -7.828125 Z M 0.46875 -7.828125 "/></g></g></g><g fill="rgb(16.468811%, 32.939148%, 38.42926%)" fill-opacity="1"><g transform="translate(129.576525, 227.552529)"><g><path d="M 0.828125 0 L 0.828125 -9.484375 L 7.203125 -9.484375 L 7.203125 -7.828125 L 2.828125 -7.828125 L 2.828125 -5.5625 L 6.875 -5.5625 L 6.875 -3.921875 L 2.828125 -3.921875 L 2.828125 -1.65625 L 7.234375 -1.65625 L 7.234375 0 Z M 0.828125 0 "/></g></g></g><g fill="rgb(16.468811%, 32.939148%, 38.42926%)" fill-opacity="1"><g transform="translate(139.099387, 227.552529)"><g><path d="M 0.828125 0 L 0.828125 -9.484375 L 4.5625 -9.484375 C 5.632812 -9.484375 6.46875 -9.203125 7.0625 -8.640625 C 7.65625 -8.078125 7.953125 -7.320312 7.953125 -6.375 C 7.953125 -5.726562 7.804688 -5.175781 7.515625 -4.71875 C 7.234375 -4.257812 6.820312 -3.914062 6.28125 -3.6875 L 8.296875 0 L 6.078125 0 L 4.296875 -3.359375 L 2.828125 -3.359375 L 2.828125 0 Z M 2.828125 -4.96875 L 4.1875 -4.96875 C 5.320312 -4.96875 5.890625 -5.4375 5.890625 -6.375 C 5.890625 -7.351562 5.316406 -7.84375 4.171875 -7.84375 L 2.828125 -7.84375 Z M 2.828125 -4.96875 "/></g></g></g><g fill="rgb(16.468811%, 32.939148%, 38.42926%)" fill-opacity="1"><g transform="translate(149.191588, 227.552529)"><g/></g></g><g fill="rgb(16.468811%, 32.939148%, 38.42926%)" fill-opacity="1"><g transform="translate(153.752474, 227.552529)"><g><path d="M 0.828125 0 L 0.828125 -9.484375 L 4.5625 -9.484375 C 5.632812 -9.484375 6.46875 -9.203125 7.0625 -8.640625 C 7.65625 -8.078125 7.953125 -7.320312 7.953125 -6.375 C 7.953125 -5.726562 7.804688 -5.175781 7.515625 -4.71875 C 7.234375 -4.257812 6.820312 -3.914062 6.28125 -3.6875 L 8.296875 0 L 6.078125 0 L 4.296875 -3.359375 L 2.828125 -3.359375 L 2.828125 0 Z M 2.828125 -4.96875 L 4.1875 -4.96875 C 5.320312 -4.96875 5.890625 -5.4375 5.890625 -6.375 C 5.890625 -7.351562 5.316406 -7.84375 4.171875 -7.84375 L 2.828125 -7.84375 Z M 2.828125 -4.96875 "/></g></g></g><g fill="rgb(16.468811%, 32.939148%, 38.42926%)" fill-opacity="1"><g transform="translate(163.844668, 227.552529)"><g><path d="M 2.453125 0 L 0.3125 0 L 3.578125 -9.484375 L 6.15625 -9.484375 L 9.4375 0 L 7.28125 0 L 6.578125 -2.15625 L 3.15625 -2.15625 Z M 3.671875 -3.71875 L 6.078125 -3.71875 L 4.90625 -7.3125 L 4.828125 -7.3125 Z M 3.671875 -3.71875 "/></g></g></g><g fill="rgb(16.468811%, 32.939148%, 38.42926%)" fill-opacity="1"><g transform="translate(175.131073, 227.552529)"><g><path d="M 0.828125 0 L 0.828125 -9.484375 L 7.09375 -9.484375 L 7.09375 -7.828125 L 2.828125 -7.828125 L 2.828125 -5.5625 L 6.6875 -5.5625 L 6.6875 -3.921875 L 2.828125 -3.921875 L 2.828125 0 Z M 0.828125 0 "/></g></g></g><g fill="rgb(16.468811%, 32.939148%, 38.42926%)" fill-opacity="1"><g transform="translate(184.292898, 227.552529)"><g><path d="M 0.46875 -7.828125 L 0.46875 -9.484375 L 8.25 -9.484375 L 8.25 -7.828125 L 5.34375 -7.828125 L 5.34375 0 L 3.359375 0 L 3.359375 -7.828125 Z M 0.46875 -7.828125 "/></g></g></g><g fill="rgb(16.468811%, 32.939148%, 38.42926%)" fill-opacity="1"><g transform="translate(194.542471, 227.552529)"><g><path d="M 2.828125 -9.484375 L 2.828125 0 L 0.828125 0 L 0.828125 -9.484375 Z M 2.828125 -9.484375 "/></g></g></g><g fill="rgb(16.468811%, 32.939148%, 38.42926%)" fill-opacity="1"><g transform="translate(199.737483, 227.552529)"><g><path d="M 8.75 -9.484375 L 8.75 0 L 7.015625 0 L 2.890625 -5.96875 L 2.828125 -5.96875 L 2.828125 0 L 0.828125 0 L 0.828125 -9.484375 L 2.578125 -9.484375 L 6.671875 -3.515625 L 6.75 -3.515625 L 6.75 -9.484375 Z M 8.75 -9.484375 "/></g></g></g><g fill="rgb(16.468811%, 32.939148%, 38.42926%)" fill-opacity="1"><g transform="translate(210.857249, 227.552529)"><g><path d="M 7.109375 -6.40625 C 6.984375 -6.851562 6.75 -7.203125 6.40625 -7.453125 C 6.0625 -7.703125 5.632812 -7.828125 5.125 -7.828125 C 4.394531 -7.828125 3.804688 -7.5625 3.359375 -7.03125 C 2.910156 -6.5 2.6875 -5.738281 2.6875 -4.75 C 2.6875 -3.757812 2.90625 -2.992188 3.34375 -2.453125 C 3.789062 -1.910156 4.390625 -1.640625 5.140625 -1.640625 C 5.804688 -1.640625 6.328125 -1.8125 6.703125 -2.15625 C 7.085938 -2.507812 7.285156 -2.976562 7.296875 -3.5625 L 5.265625 -3.5625 L 5.265625 -5.078125 L 9.234375 -5.078125 L 9.234375 -3.875 C 9.234375 -3.050781 9.054688 -2.335938 8.703125 -1.734375 C 8.347656 -1.128906 7.863281 -0.664062 7.25 -0.34375 C 6.632812 -0.03125 5.925781 0.125 5.125 0.125 C 4.238281 0.125 3.457031 -0.0664062 2.78125 -0.453125 C 2.113281 -0.847656 1.59375 -1.410156 1.21875 -2.140625 C 0.84375 -2.867188 0.65625 -3.734375 0.65625 -4.734375 C 0.65625 -5.753906 0.847656 -6.628906 1.234375 -7.359375 C 1.628906 -8.085938 2.160156 -8.644531 2.828125 -9.03125 C 3.503906 -9.414062 4.257812 -9.609375 5.09375 -9.609375 C 5.800781 -9.609375 6.445312 -9.472656 7.03125 -9.203125 C 7.613281 -8.929688 8.085938 -8.554688 8.453125 -8.078125 C 8.828125 -7.597656 9.054688 -7.039062 9.140625 -6.40625 Z M 7.109375 -6.40625 "/></g></g></g></svg>